<svg width="56" height="57" viewBox="0 0 56 57" fill="none" xmlns="http://www.w3.org/2000/svg">
<path d="M0.613913 36.4944C2.48035 42.6977 6.43993 48.0619 11.818 51.673C17.1961 55.2841 23.6599 56.9187 30.108 56.2983C36.5562 55.678 42.5898 52.841 47.1807 48.2707C51.7717 43.7005 54.6359 37.6798 55.2854 31.2345C55.935 24.7892 54.3296 18.3181 50.7428 12.9237C47.156 7.52938 41.8098 3.54559 35.615 1.65114C29.4203 -0.243316 22.7603 0.0687855 16.7699 2.53426C10.7795 4.99973 5.82923 9.46603 2.76264 15.1722L27.4265 28.427L0.613913 36.4944Z" fill="url(#paint0_linear_1_1591)"/>
<defs>
<linearGradient id="paint0_linear_1_1591" x1="8.16599" y1="48.7705" x2="51.0322" y2="13.3972" gradientUnits="userSpaceOnUse">
<stop stop-color="#7A87FB"/>
<stop offset="1" stop-color="#FFD49C"/>
</linearGradient>
</defs>
</svg>
