<svg width="563" height="590" viewBox="0 0 563 590" fill="none" xmlns="http://www.w3.org/2000/svg">
<g filter="url(#filter0_d_2481_10)">
<rect x="29" y="49.73" width="512" height="512" fill="white"/>
<path d="M30.2323 36.73C30.2323 93.7825 30.8402 116.711 30.8402 177.386M30.8402 177.386C30.8402 238.06 30.7462 348.647 30.2323 422.972C29.7184 497.298 29.3196 569.643 29.3196 569.643C29.3196 580.141 28.1955 567.752 28.2775 562.167C28.38 555.184 29.3635 356.526 29.3635 339.184C29.3635 321.841 30.2323 233.559 30.8402 177.386Z" stroke="black" stroke-width="6" stroke-miterlimit="10" stroke-linecap="round" stroke-linejoin="round"/>
<path d="M455.793 561.46C539.238 561.46 527.583 561.46 555 561.46C554.528 561.734 550.277 562.778 548.523 562.99C546.33 563.254 488.801 563.11 476.523 563.11C434.493 563.11 244.627 562.123 232.201 562.123M455.793 561.46C455.793 561.46 254.533 563.11 222.434 563.11C190.335 563.11 197.927 563.155 130.163 563.11C79.5005 563.077 18.92 563.11 14.8434 563.11C10.7667 563.11 12.271 561.131 12.271 561.131C40.7666 562.123 90.3594 562.123 155.492 562.123C177.936 562.123 204.189 562.123 232.201 562.123M455.793 561.46C394.791 561.46 308.336 562.123 232.201 562.123" stroke="black" stroke-width="6" stroke-miterlimit="10" stroke-linecap="round" stroke-linejoin="round"/>
<path d="M540.447 307.402C540.447 373.796 541.8 415.57 541.8 458.981C541.8 502.393 541.109 575.937 541.109 575.937C541.109 575.937 539.517 579.036 539.517 572.98C539.517 566.924 540.558 523.87 540.447 461.996C540.335 400.122 540.34 335.287 540.447 307.402ZM540.447 307.402C540.446 276.103 539.724 212.171 539.767 176.594C539.814 136.701 539.767 79.2511 539.767 40.73" stroke="black" stroke-width="6" stroke-miterlimit="10" stroke-linecap="round" stroke-linejoin="round"/>
<path d="M22.9998 50.5921C52.2194 50.5921 77.7129 50.5921 92.744 50.5921M92.744 50.5921C107.775 50.5921 174.513 50.8836 202.772 50.8836M92.744 50.5921C92.744 50.5921 125.34 49.6846 144.451 49.6846C163.562 49.6846 202.772 50.8836 202.772 50.8836M560 50.8836C530.093 50.8836 543.921 50.5921 514.217 50.5921C497.285 50.5921 476.571 51.078 446.877 50.8836M282.314 49.6846C302.864 49.7127 410.276 50.6441 446.877 50.8836M282.314 49.6846C261.061 49.6556 231.03 50.8836 202.772 50.8836M282.314 49.6846C282.314 49.6846 333.843 49.6846 362.703 49.6846M446.877 50.8836C446.877 50.8836 391.563 49.6846 362.703 49.6846M202.772 50.8836C220.092 50.8836 260.25 50.8836 282.314 50.8836C304.378 50.8836 345.1 50.0843 362.703 49.6846" stroke="black" stroke-width="6" stroke-miterlimit="10" stroke-linecap="round" stroke-linejoin="round"/>
<rect x="77" y="105.73" width="416" height="400" fill="#494848" fill-opacity="0.19" stroke="black" stroke-width="4"/>
<g filter="url(#filter1_d_2481_10)">
<rect x="10" y="136.73" width="90.0111" height="90.0111" rx="45.0056" fill="#FFDC58" stroke="black" stroke-width="2"/>
<path fill-rule="evenodd" clip-rule="evenodd" d="M53.7978 209.295C53.7973 209.286 53.7899 209.279 53.7809 209.279C52.6103 209.25 51.4123 209.136 50.2333 208.805C49.8025 208.684 49.3623 208.566 48.9483 208.366C48.219 208.019 47.5414 207.522 47.008 206.906C46.7388 206.593 46.5081 206.28 46.3017 205.909C46.0854 205.537 45.9592 205.107 45.9088 204.675C45.8578 204.29 45.8989 203.894 45.9934 203.52C46.0959 203.145 46.2787 202.804 46.492 202.492C47.0645 201.706 48.035 201.235 48.9408 201.322C49.2249 201.34 49.1845 201.486 49.0024 201.709C48.8078 201.906 48.5454 202.308 48.2538 202.528C47.9735 202.718 47.8112 203.005 47.6303 203.222C47.463 203.458 47.3555 203.718 47.3076 203.983C47.2361 204.242 47.2231 204.522 47.2784 204.812C47.3356 205.101 47.4792 205.389 47.6744 205.729C47.9119 206.106 48.2389 206.435 48.6163 206.702C49.0005 206.964 49.4295 207.166 49.8715 207.343C50.8488 207.731 51.948 207.9 53.0583 207.97C53.744 208.009 54.4403 208.019 55.1255 207.98C56.1656 207.919 57.2144 207.79 58.1997 207.485C58.9719 207.269 59.6868 206.939 60.3688 206.564C60.5205 206.482 60.6617 206.392 60.8096 206.304C61.3592 205.978 61.5656 205.919 61.8155 206.009C61.8715 206.029 61.9355 206.04 61.9803 206.065C62.1214 206.135 62.017 206.451 61.6371 206.812C61.0707 207.338 60.4093 207.804 59.6893 208.178C59.3287 208.362 58.9582 208.541 58.5728 208.678C58.1836 208.801 57.7869 208.904 57.3872 208.985C56.207 209.234 54.9998 209.313 53.8151 209.312C53.8059 209.312 53.7983 209.305 53.7978 209.295Z" fill="#231F20"/>
<path fill-rule="evenodd" clip-rule="evenodd" d="M57.006 209.737C57.0044 209.733 56.9996 209.73 56.9949 209.731C56.3603 209.899 55.7147 210.019 55.0672 210.118C54.8279 210.151 54.5935 210.182 54.3535 210.214C53.508 210.275 52.6575 210.256 51.8195 210.139C51.4464 210.09 51.0747 210.024 50.7079 209.946C50.2428 209.829 49.7542 209.709 49.3575 209.403C49.2313 209.314 49.3314 209.199 49.5105 209.128C49.6939 209.054 49.9301 209.036 50.1664 209.111C50.992 209.421 51.8972 209.56 52.8254 209.642C53.3837 209.684 53.9674 209.622 54.535 209.54C55.1629 209.469 55.7859 209.339 56.4032 209.185C56.7837 209.094 57.1574 208.97 57.5316 208.854L58.3746 208.555C58.65 208.443 58.9236 208.324 59.1934 208.202C59.6062 207.998 59.9898 207.757 60.3896 207.542L60.6476 207.391C60.9771 207.213 61.1076 207.199 61.2357 207.253C61.2649 207.266 61.2991 207.275 61.3215 207.291C61.3955 207.343 61.3028 207.486 61.0883 207.673C60.4561 208.237 59.6932 208.7 58.8794 209.063C58.2846 209.348 57.6558 209.567 57.017 209.743C57.0124 209.744 57.0075 209.742 57.006 209.737Z" fill="#231F20"/>
<path fill-rule="evenodd" clip-rule="evenodd" d="M58.2375 213.732C58.2423 213.736 58.2491 213.736 58.2537 213.732C58.4524 213.56 58.6227 213.318 58.7792 213.065C58.8401 212.974 58.8625 212.857 58.9197 212.76C59.1149 212.408 59.2871 212.027 59.458 211.633C59.5401 211.461 59.5998 211.278 59.6669 211.095C59.7577 210.863 59.8161 210.599 60.0773 210.41C60.1519 210.351 60.2377 210.468 60.316 210.61C60.3906 210.76 60.4814 210.884 60.4577 211.005C60.3446 211.394 60.2955 211.899 60.0151 212.336C59.8634 212.602 59.8012 212.918 59.6657 213.209C59.5221 213.53 59.3294 213.839 59.1136 214.133C58.9582 214.302 58.8221 214.481 58.6331 214.622C58.4978 214.732 58.3526 214.829 58.1992 214.912L58.196 214.913C58.0468 215.009 57.8789 215.058 57.7161 215.119C57.5911 215.177 57.4661 215.216 57.3362 215.252C57.2088 215.286 57.0745 215.347 56.9427 215.357C56.8848 215.365 56.8277 215.366 56.7686 215.361C56.5504 215.334 56.4863 215.268 56.4702 215.048C56.4658 215.002 56.459 214.956 56.459 214.914C56.4596 214.781 56.5585 214.614 56.6853 214.553C57.0738 214.361 57.3629 214.297 57.6458 214.159C57.8319 214.037 58.0451 213.935 58.2196 213.734C58.2241 213.729 58.232 213.728 58.2375 213.732Z" fill="#231F20"/>
<path fill-rule="evenodd" clip-rule="evenodd" d="M48.4617 202.776C48.4565 202.769 48.4469 202.766 48.4385 202.77C48.2856 202.833 48.1067 202.903 47.9518 203.023C47.8946 203.068 47.8604 203.133 47.8032 203.18C47.5943 203.343 47.3885 203.535 47.2368 203.761C47.1809 203.86 47.1461 203.978 47.1529 204.08C47.1492 204.227 47.2014 204.305 47.0932 204.417C47.0547 204.455 46.8147 204.568 46.5467 204.596C46.2881 204.64 45.9499 204.516 45.9232 204.345C45.8529 204.038 45.9132 203.769 46.0071 203.545C46.0979 203.316 46.2384 203.127 46.4075 202.968C46.6139 202.786 46.7053 202.536 46.8856 202.342C47.0857 202.135 47.3071 201.949 47.5595 201.796C47.7074 201.697 47.8828 201.63 48.0481 201.556C48.308 201.448 48.5923 201.401 48.8731 201.379C48.8764 201.379 48.8797 201.379 48.8831 201.379C48.9968 201.377 49.1131 201.349 49.2318 201.344C49.3481 201.35 49.4712 201.356 49.5931 201.376C49.649 201.38 49.69 201.41 49.7348 201.438C49.8902 201.561 49.894 201.669 49.7827 201.891C49.7572 201.942 49.7336 201.992 49.705 202.039C49.6092 202.195 49.4656 202.306 49.3543 202.365C49.0087 202.56 48.9906 202.618 48.8445 202.652C48.7534 202.672 48.6224 202.712 48.4867 202.782C48.478 202.787 48.4673 202.784 48.4617 202.776Z" fill="#231F20"/>
<path fill-rule="evenodd" clip-rule="evenodd" d="M37.7842 192.322C37.7874 192.318 37.7874 192.313 37.7841 192.309C36.2968 190.584 34.9566 188.715 33.8849 186.691C33.6778 186.327 33.4982 185.949 33.3216 185.57C33.1345 185.195 32.966 184.812 32.8224 184.418C31.7257 181.677 31.2775 178.683 31.4963 175.757C31.5317 175.106 31.6399 174.46 31.7183 173.815C31.8575 173.179 31.9352 172.53 32.1186 171.911C32.4848 170.301 33.1102 168.701 34.0795 167.35C34.3841 166.93 34.4114 167.038 34.2635 167.454C34.1093 167.87 33.8507 168.623 33.5075 169.477C33.3558 169.857 33.2215 170.244 33.1015 170.635C32.9803 171.023 32.8982 171.432 32.7826 171.826C32.6694 172.223 32.5675 172.621 32.4997 173.028C32.4289 173.433 32.3219 173.833 32.279 174.243C32.0192 175.87 31.9999 177.532 32.1584 179.182C32.3468 181.162 32.9635 183.17 33.8239 185.015C34.7596 187.052 35.9582 188.976 37.3676 190.741C38.2237 191.836 39.1494 192.88 40.123 193.876C41.5908 195.393 43.1656 196.823 44.7708 198.178C46.0198 199.231 47.2905 200.207 48.547 201.231C48.8224 201.459 49.0996 201.672 49.3682 201.913C50.3735 202.796 50.6452 203.139 50.7447 203.446C50.7683 203.515 50.8081 203.597 50.8137 203.644C50.8298 203.806 50.381 203.495 49.6306 202.884C47.3894 201.09 44.9629 199.231 42.6564 197.192C40.9476 195.678 39.2903 194.077 37.7842 192.335C37.7809 192.331 37.7809 192.326 37.7842 192.322Z" fill="#231F20"/>
<path fill-rule="evenodd" clip-rule="evenodd" d="M34.808 166.169C34.8182 166.174 34.8302 166.171 34.8368 166.162C35.8129 164.861 36.9615 163.716 38.2143 162.711C39.5012 161.742 40.8789 160.908 42.3343 160.239C45.255 158.941 48.4431 158.234 51.6535 158.334C52.8248 158.37 53.9936 158.505 55.1238 158.73C55.6933 158.842 56.2609 158.978 56.8235 159.144C57.3862 159.307 57.9364 159.545 58.4897 159.748C60.407 160.586 62.1129 161.877 63.4732 163.435C64.8397 164.993 65.8698 166.808 66.5761 168.717C68.011 172.539 68.2864 176.688 67.7517 180.652C67.5379 182.418 67.1624 184.161 66.6986 185.87C66.2503 187.586 65.6616 189.253 65.0362 190.89C64.2298 192.994 63.2625 195.037 62.1838 197.015C61.1139 198.997 59.8978 200.896 58.578 202.709C57.7505 203.837 57.7095 203.575 58.177 202.473C58.4163 201.927 58.7545 201.153 59.1866 200.241C59.6031 199.32 60.1192 198.264 60.7085 197.138C61.7592 195.143 62.6588 193.079 63.5198 191.01C64.3629 188.932 65.0828 186.808 65.6261 184.642C66.7228 180.321 67.0616 175.78 66.0172 171.447C65.6989 170.16 65.2519 168.891 64.6625 167.685C64.0707 166.479 63.3041 165.359 62.4095 164.361C61.5118 163.367 60.4754 162.489 59.3047 161.84C58.1359 161.19 56.8944 160.692 55.5714 160.385C49.7834 158.937 43.3315 160.443 38.6955 164.249C37.2786 165.422 36.0471 166.824 35.1431 168.418C34.9404 168.827 34.7228 169.232 34.5295 169.645L34.0539 170.931C33.8164 171.826 33.569 172.722 33.4484 173.642L33.362 174.162L33.3184 174.686L33.2351 175.736L33.242 176.79L33.2476 177.317L33.2967 177.842C33.3806 179.248 33.7051 180.63 34.1043 181.981C34.5121 183.334 35.1008 184.627 35.7412 185.887C36.4114 187.133 37.1711 188.33 37.9973 189.477C40.5948 193.038 43.7928 195.997 47.0716 198.893C47.7965 199.532 48.5189 200.142 49.2407 200.806C51.9221 203.24 52.6507 204.308 52.7906 205.174C52.8211 205.371 52.854 205.619 52.8378 205.732C52.8217 205.83 52.7608 205.82 52.6563 205.733C52.5469 205.644 52.4331 205.473 52.2006 205.253C51.7735 204.807 51.0635 204.112 50.0806 203.25C47.135 200.721 43.9656 198.15 41.0666 195.175C38.1733 192.211 35.4652 188.839 33.6852 184.878C33.0219 183.413 32.5251 181.863 32.1807 180.276C31.8295 178.686 31.7399 177.042 31.7903 175.414C31.8506 173.779 32.1751 172.174 32.5985 170.608C33.0896 169.023 33.836 167.526 34.7787 166.178C34.7853 166.168 34.7975 166.165 34.808 166.169Z" fill="#231F20"/>
<path fill-rule="evenodd" clip-rule="evenodd" d="M50.9002 208.264C50.8994 208.273 50.9057 208.282 50.9149 208.283C52.4949 208.57 54.1744 208.522 55.8213 208.254C56.42 208.149 57.0268 207.982 57.6074 207.855C58.5841 207.602 59.5794 207.137 60.4877 206.597C61.3942 206.05 62.2397 205.379 62.8291 204.564C63.3258 203.829 63.442 202.948 63.0013 202.226C62.7271 201.768 62.267 201.39 61.7709 201.08C61.2642 200.782 60.724 200.51 60.1495 200.305C59.7927 200.185 59.8462 200.068 60.2136 199.964C60.5679 199.883 61.2972 199.769 62.0401 200.101C62.6885 200.39 63.327 200.783 63.8443 201.415C63.9758 201.567 64.0815 201.74 64.173 201.925C64.3673 202.316 64.4909 202.742 64.5257 203.178C64.5313 203.395 64.494 203.608 64.4716 203.823C64.3074 204.663 63.8704 205.33 63.3967 205.883C62.9192 206.443 62.3572 206.865 61.779 207.247C61.0852 207.697 60.3659 208.103 59.613 208.464C59.2363 208.645 58.8496 208.811 58.4486 208.954C58.2503 209.03 58.0351 209.084 57.83 209.148L57.2313 209.279C55.4856 209.667 53.6758 209.871 51.8661 209.718C50.7538 209.621 49.6472 209.388 48.5934 208.98C47.7977 208.662 47.0473 208.212 46.387 207.641C45.7361 207.061 45.204 206.312 44.941 205.442C44.7507 204.769 44.7221 204.012 44.9515 203.324C45.1878 202.639 45.6298 202.049 46.157 201.597C46.3895 201.396 46.6251 201.212 46.8894 201.058C47.3768 200.77 47.743 200.685 48.0003 200.652C48.2627 200.632 48.4318 200.691 48.5835 200.816C48.6525 200.872 48.7346 200.921 48.7793 200.979C48.9298 201.181 48.5798 201.472 48.0035 201.836C47.1449 202.364 46.4231 203.096 46.226 203.877C46.1067 204.266 46.1284 204.65 46.2198 205.056C46.3305 205.462 46.5686 205.858 46.8595 206.228C47.782 207.317 49.3102 207.973 50.8854 208.245C50.8947 208.246 50.9011 208.255 50.9002 208.264Z" fill="#231F20"/>
<path fill-rule="evenodd" clip-rule="evenodd" d="M49.2435 205.324C49.2408 205.332 49.2446 205.341 49.2524 205.344C50.1279 205.709 51.1008 205.947 52.0959 206.064C52.4615 206.109 52.8314 206.103 53.2 206.117C54.5019 206.174 55.8329 206.078 57.108 205.753C57.6719 205.607 58.2265 205.408 58.7344 205.147C59.3878 204.805 59.9566 204.363 60.4615 203.873C60.6219 203.721 60.7412 203.808 60.7636 204.077C60.7997 204.352 60.6865 204.828 60.3147 205.167C58.9955 206.315 57.3629 206.85 55.7378 207.009C54.7642 207.102 53.7602 207.251 52.7586 207.223C51.6613 207.19 50.5578 207.047 49.4954 206.704C48.8432 206.494 48.2053 206.213 47.6166 205.834C47.1733 205.543 46.7593 205.191 46.4186 204.767C46.2594 204.546 46.0996 204.326 45.9809 204.079C45.8448 203.858 45.7453 203.505 45.7515 203.206C45.7583 202.719 45.9442 202.287 46.1823 201.926C46.4242 201.565 46.7276 201.259 47.0776 201.01C47.2293 200.897 47.3872 200.797 47.5613 200.712C48.2252 200.416 48.5286 200.531 48.6778 200.793C48.7133 200.854 48.7549 200.912 48.7723 200.972C48.8189 201.174 48.6038 201.359 48.2843 201.535C47.7969 201.791 47.3381 202.212 47.0888 202.647C46.9638 202.862 46.9091 203.072 46.9215 203.211C46.9234 203.283 46.9452 203.338 46.9731 203.397C47.0067 203.469 47.1 203.619 47.1565 203.728C47.5913 204.407 48.3526 204.949 49.2344 205.304C49.2423 205.307 49.2463 205.316 49.2435 205.324Z" fill="#231F20"/>
<path fill-rule="evenodd" clip-rule="evenodd" d="M52.8178 211.012C52.8166 211.022 52.8227 211.03 52.8319 211.033C53.6474 211.222 54.5337 211.25 55.4175 211.171C55.7439 211.148 56.0609 211.057 56.3855 211.004C57.5337 210.817 58.6683 210.459 59.7538 209.984C60.23 209.762 60.6857 209.491 61.0986 209.182C61.6438 208.792 62.0777 208.309 62.526 207.86C62.677 207.724 62.8119 207.808 62.876 208.066C62.9058 208.193 62.9313 208.38 62.8934 208.574C62.8486 208.753 62.7622 208.952 62.6242 209.129C61.5891 210.283 60.3009 211.11 58.8741 211.546C58.0193 211.791 57.1682 212.147 56.2667 212.303C55.2826 212.482 54.2692 212.544 53.2577 212.443C52.6373 212.377 52.0125 212.23 51.4274 212.022C50.5403 211.696 49.7022 211.196 49.0072 210.544C48.4644 210.046 47.9652 209.485 47.6065 208.827C47.5331 208.68 47.461 208.536 47.3995 208.382C47.2198 207.796 47.3224 207.572 47.5686 207.39C47.6251 207.348 47.6761 207.3 47.7302 207.272C47.9037 207.181 48.1673 207.356 48.396 207.675C48.7324 208.15 49.0252 208.599 49.3591 209.01C49.6941 209.419 50.0889 209.772 50.5365 210.071C51.1897 210.51 51.9992 210.831 52.8032 210.992C52.8127 210.994 52.8191 211.003 52.8178 211.012Z" fill="#231F20"/>
<path fill-rule="evenodd" clip-rule="evenodd" d="M49.3784 172.873C49.3868 172.871 49.3922 172.863 49.3916 172.854C49.3702 172.548 49.3687 172.233 49.3858 171.911L49.4225 171.407L49.4828 171.043C49.5176 170.912 49.5649 170.785 49.6053 170.656C49.7781 170.136 50.1822 169.798 50.6609 169.699C51.1446 169.603 51.6488 169.769 52.0368 170.122C52.1306 170.214 52.2289 170.308 52.3066 170.412C52.393 170.516 52.4751 170.617 52.5105 170.685C52.6093 170.839 52.6877 170.991 52.7623 171.143C52.9102 171.445 53.024 171.743 53.126 172.04C53.3181 172.64 53.4791 173.261 53.5518 173.878C53.8583 176.346 53.4872 178.834 52.4073 181.069C52.209 181.476 51.9771 181.87 51.7209 182.252C51.591 182.444 51.4169 182.638 51.264 182.828C51.0818 183.003 50.8966 183.181 50.6883 183.332C49.8372 183.948 48.697 184.111 47.7626 183.889C46.9227 183.717 46.1779 183.361 45.5021 182.936C44.8251 182.505 44.2164 182.005 43.6656 181.423C43.1061 180.823 42.6715 180.164 42.306 179.463C41.9448 178.763 41.6476 178.022 41.4984 177.221C41.3517 176.43 41.3249 175.542 41.7122 174.719C41.8956 174.32 42.148 173.961 42.5148 173.659C42.8742 173.357 43.3765 173.181 43.8534 173.196C44.8207 173.228 45.5494 173.811 46.0989 174.343C46.6665 174.895 47.1359 175.522 47.5462 176.173C48.9967 178.494 49.8074 181.098 50.577 183.598C51.08 185.212 51.5214 186.87 51.8024 188.564C51.9342 189.412 52.0355 190.267 52.0616 191.127C52.0877 191.986 52.0436 192.845 51.9628 193.695C51.8335 194.756 51.6768 194.586 51.512 193.694C51.4213 193.218 51.3019 192.6 51.1645 191.882C51.0004 191.142 50.8356 190.289 50.6783 189.36C50.3973 187.713 49.928 186.1 49.425 184.476C48.9351 182.834 48.4458 181.202 47.8515 179.647C47.2559 178.098 46.5316 176.578 45.4878 175.399C45.2304 175.106 44.9395 174.827 44.6665 174.64C44.383 174.453 44.0803 174.337 43.8235 174.338C43.5661 174.331 43.3417 174.423 43.1241 174.633C42.9065 174.844 42.7219 175.161 42.6286 175.467C42.3868 176.244 42.5733 177.24 42.9401 178.138C43.305 179.043 43.8509 179.927 44.5155 180.622C45.2105 181.325 46.0467 181.931 46.9326 182.333C47.8142 182.714 48.7878 182.896 49.5493 182.54C49.9702 182.357 50.3321 182.035 50.6311 181.631C50.9351 181.191 51.2037 180.712 51.4262 180.21C51.859 179.199 52.1474 178.109 52.2699 177.001C52.4036 175.893 52.3756 174.766 52.1797 173.682C52.0691 173.146 51.923 172.617 51.716 172.111C51.6134 171.861 51.4971 171.623 51.3659 171.417C51.2571 171.247 51.2018 171.181 51.0744 171.108C50.9239 171.023 50.7349 171.113 50.6752 171.27C50.6423 171.343 50.6143 171.426 50.6025 171.501C50.5751 171.626 50.5447 171.807 50.5391 171.965C50.5068 172.628 50.582 173.325 50.7113 174.004C50.8425 174.683 51.0302 175.357 51.2926 175.989C51.5487 176.604 51.8975 177.25 52.3433 177.558C52.7119 177.784 53.167 177.894 53.6041 177.812C54.0467 177.737 54.4813 177.5 54.8624 177.187C55.6202 176.555 56.2276 175.651 56.5186 174.712C56.6622 174.268 56.6665 173.757 56.6025 173.273C56.5329 172.796 56.3588 172.321 56.0734 172.078C55.7781 171.833 55.4834 171.836 55.172 172.131C54.8586 172.431 54.6031 172.885 54.4104 173.348C54.2512 173.711 54.1586 174.08 54.0672 174.488C53.9646 174.883 53.8963 175.286 53.8304 175.688C53.7116 176.494 53.6401 177.305 53.6227 178.117C53.586 179.741 53.7091 181.363 53.9907 182.963C54.1151 183.668 54.2699 184.351 54.4458 185.048C54.7666 186.344 55.0433 187.176 55.1925 187.779C55.3492 188.379 55.374 188.753 55.3286 189.089C55.3075 189.242 55.305 189.435 55.2665 189.537C55.167 189.878 54.3973 188.978 53.7073 187.037C52.7082 184.165 52.2083 181.021 52.3451 177.818C52.388 177.019 52.4632 176.215 52.5975 175.414C52.6728 175.016 52.7175 174.611 52.8139 174.212L52.9457 173.605C53.0041 173.375 53.0725 173.169 53.1483 172.958C53.3044 172.541 53.489 172.131 53.7601 171.716C54.0312 171.32 54.393 170.834 55.1807 170.572C55.5562 170.487 55.974 170.479 56.3277 170.651C56.7013 170.773 56.9674 171.002 57.1844 171.243C57.6146 171.736 57.7756 172.254 57.8869 172.737C58.0243 173.465 58.0417 174.132 57.8571 174.902C57.6631 175.603 57.3554 176.2 56.9824 176.757C56.6056 177.309 56.1574 177.815 55.6022 178.244C55.0501 178.665 54.3613 179.026 53.5469 179.09C53.3485 179.12 53.1384 179.084 52.9364 179.075C52.7343 179.049 52.5385 178.985 52.342 178.934C52.158 178.86 51.9808 178.772 51.8036 178.684C51.6053 178.568 51.4337 178.427 51.2901 178.287C50.743 177.715 50.462 177.12 50.2115 176.528C49.7433 175.343 49.4633 174.15 49.3652 172.893C49.3646 172.884 49.37 172.876 49.3784 172.873Z" fill="#231F20"/>
<path fill-rule="evenodd" clip-rule="evenodd" d="M74.0222 174.371C74.0079 174.48 73.8643 174.432 73.6411 174.3C73.5697 174.258 73.4012 174.085 73.3956 174.042C73.3844 173.959 73.3751 173.876 73.38 173.805C73.38 173.762 73.6623 173.311 73.7624 173.153C73.8556 172.998 73.9781 172.873 74.1111 172.761C74.3754 172.526 74.6582 172.308 74.9573 172.109C75.0238 172.066 75.0984 172.034 75.178 172.014C75.4553 171.949 75.694 171.826 75.9302 171.683C75.97 171.66 76.016 171.648 76.0384 171.589C76.0676 171.481 76.7782 171.199 76.8864 171.212C77.1457 171.223 77.3931 171.21 77.6449 171.241C77.6803 171.246 77.7133 171.22 77.7537 171.27C77.8463 171.384 77.9134 171.353 77.9874 171.353C78.0888 171.351 78.192 171.362 78.2952 171.396C78.3461 171.412 78.4002 171.479 78.4512 171.531C78.4972 171.578 78.4854 171.764 78.473 171.785C78.4357 171.847 78.4755 171.931 78.4842 172.007C78.4906 172.06 78.4762 172.11 78.4383 172.148C78.3987 172.187 78.3409 172.241 78.2799 172.295C78.1034 172.451 77.8677 172.579 77.648 172.665C77.4751 172.733 77.3005 172.815 77.2675 172.841C77.1949 172.89 77.0976 172.858 77.0212 172.901C76.9864 172.92 76.9469 172.943 76.9064 172.967C76.7131 173.081 76.5177 173.272 76.2983 173.226C76.289 173.224 76.2795 173.222 76.2697 173.219C76.2392 173.211 76.2212 173.228 76.2013 173.24C76.0303 173.347 75.8345 173.411 75.6449 173.495C75.5498 173.541 75.4683 173.608 75.3807 173.666C75.3645 173.676 75.3402 173.675 75.3203 173.68C75.2955 173.686 75.2675 173.688 75.2482 173.703C75.0456 173.848 74.8062 173.954 74.6359 174.146C74.5948 174.186 74.3026 174.279 74.261 174.335C74.2367 174.365 74.0278 174.326 74.0222 174.371Z" fill="#231F20"/>
<path fill-rule="evenodd" clip-rule="evenodd" d="M68.0318 160.518C68.0168 160.63 67.8645 160.579 67.632 160.445C67.558 160.402 67.3827 160.224 67.3759 160.18C67.3628 160.093 67.3516 160.007 67.3541 159.932C67.3541 159.887 67.6245 159.405 67.7153 159.23C67.8011 159.062 67.918 158.925 68.0448 158.801C68.3041 158.549 68.5807 158.318 68.8555 158.097C68.9171 158.048 68.9879 158.011 69.0663 157.989C69.3348 157.909 69.5499 157.76 69.7439 157.585C69.7762 157.556 69.8173 157.538 69.8216 157.471C69.8328 157.362 70.3855 156.952 70.475 156.932C70.7075 156.883 70.9164 156.801 71.1365 156.732C71.1688 156.724 71.1844 156.689 71.2453 156.722C71.3871 156.801 71.4275 156.742 71.4896 156.712C71.5761 156.669 71.665 156.631 71.77 156.612C71.8222 156.602 71.9087 156.636 71.9851 156.658C72.0548 156.677 72.1673 156.852 72.1698 156.879C72.1766 156.957 72.2661 157.011 72.3233 157.076C72.3426 157.098 72.3681 157.126 72.3811 157.146C72.6748 157.539 71.9444 158.093 71.5868 158.429C71.524 158.489 71.4771 158.534 71.4623 158.552C71.43 158.591 71.369 158.591 71.3168 158.602C71.2919 158.609 70.8095 159.065 70.7877 159.074C70.6659 159.134 70.5844 159.25 70.4054 159.222C70.37 159.217 70.3513 159.236 70.3308 159.253C70.1542 159.394 69.9429 159.481 69.7427 159.584C69.642 159.637 69.5605 159.716 69.4685 159.78C69.4517 159.793 69.425 159.79 69.4045 159.797C69.3777 159.804 69.3473 159.806 69.3274 159.823C69.1272 159.997 68.863 160.092 68.6864 160.295C68.6429 160.336 68.3289 160.426 68.2854 160.484C68.2593 160.514 68.038 160.472 68.0318 160.518Z" fill="#231F20"/>
<path fill-rule="evenodd" clip-rule="evenodd" d="M59.9808 213.647C59.9744 213.644 59.9663 213.646 59.9621 213.652C59.6348 214.118 59.2463 214.587 58.7305 214.953C58.5346 215.078 58.3512 215.228 58.1249 215.306C57.7364 215.467 57.2794 215.508 56.8834 215.445C56.4818 215.384 56.1181 215.248 55.7923 215.071C55.5026 214.916 55.2229 214.756 54.9568 214.584C54.7883 214.47 54.6155 214.362 54.4594 214.233C54.3096 214.096 54.1834 213.933 54.0783 213.755C54.0143 213.642 54.1324 213.55 54.3227 213.496C54.7501 213.383 55.1546 213.631 55.5307 213.863C55.9484 214.122 56.3668 214.339 56.7833 214.5C57.165 214.637 57.5238 214.532 57.8732 214.339C58.2543 214.132 58.5931 213.79 58.8853 213.384C59.0687 213.137 59.2322 212.862 59.3889 212.583C59.6208 212.154 59.8551 211.711 60.0578 211.254C60.212 210.897 60.3171 210.516 60.4855 210.152C60.5235 210.072 60.5521 209.988 60.5962 209.91C60.7777 209.63 60.9238 209.597 61.1856 209.704C61.2421 209.727 61.2975 209.742 61.3422 209.765C61.4778 209.829 61.6065 210.08 61.5542 210.297C61.4075 210.948 61.1358 211.556 60.8107 212.199C60.575 212.673 60.3094 213.157 59.9998 213.643C59.9957 213.649 59.9874 213.651 59.9808 213.647Z" fill="#231F20"/>
<path fill-rule="evenodd" clip-rule="evenodd" d="M51.5798 153.47C51.6488 153.568 51.5139 153.657 51.2708 153.738C51.1931 153.764 50.9562 153.768 50.9195 153.741C50.8499 153.689 50.7796 153.637 50.728 153.583C50.7001 153.549 50.5098 153.024 50.4184 152.852C50.3357 152.684 50.2922 152.514 50.2562 152.344C50.1841 151.998 50.0777 151.659 50.0174 151.316C50.0019 151.24 50.0038 151.162 50.0174 151.082C50.0678 150.805 50.0205 150.541 49.9316 150.285C49.9167 150.242 49.9155 150.195 49.8533 150.163C49.8292 150.152 49.8016 150.107 49.774 150.043C49.571 149.574 49.6699 149.047 49.7346 148.54C49.7389 148.503 49.7122 148.472 49.7657 148.428C49.89 148.323 49.8458 148.257 49.8546 148.178C49.8565 148.151 49.8582 148.123 49.8604 148.095C49.8734 147.928 49.9609 147.785 50.061 147.651C50.1045 147.593 50.2307 147.586 50.2543 147.597C50.3121 147.631 50.3712 147.577 50.4246 147.559C50.4433 147.552 50.4675 147.544 50.485 147.542C50.5138 147.537 50.6642 147.633 50.8163 147.746C51.0685 147.932 51.2306 148.217 51.3566 148.504C51.4536 148.725 51.5592 148.956 51.5866 149.002C51.6445 149.096 51.6068 149.219 51.6421 149.324C51.7134 149.536 51.8314 149.887 51.8309 149.909C51.8378 150.059 51.913 150.2 51.8054 150.37C51.7849 150.403 51.7961 150.432 51.803 150.462C51.8577 150.714 51.839 150.979 51.8347 151.239C51.8322 151.372 51.862 151.501 51.8626 151.634C51.8633 151.657 51.8452 151.683 51.8378 151.708C51.8284 151.739 51.8129 151.77 51.8148 151.8C51.8365 152.111 51.7768 152.426 51.8235 152.732C51.8334 152.803 51.7016 153.149 51.7184 153.229C51.7265 153.275 51.5505 153.432 51.5798 153.47Z" fill="#231F20"/>
<path fill-rule="evenodd" clip-rule="evenodd" d="M31.4505 154.561C31.3181 154.544 31.3858 154.367 31.5798 154.107C31.6414 154.025 31.8782 153.828 31.9292 153.82C32.028 153.801 32.1244 153.785 32.2027 153.783C32.2487 153.787 32.7007 154.027 32.8729 154.078C33.0333 154.136 33.1639 154.224 33.2895 154.321L34.0883 154.878C34.148 154.92 34.1978 154.975 34.2425 155.041C34.3917 155.271 34.6056 155.417 34.8412 155.53C34.8804 155.549 34.9133 155.581 34.9768 155.558C35.0768 155.522 35.6886 155.885 35.7508 155.969C35.8987 156.174 36.0697 156.347 36.2326 156.535C36.2562 156.562 36.2979 156.563 36.2929 156.633C36.2811 156.794 36.3557 156.81 36.4135 156.856C36.4931 156.921 36.5695 156.993 36.6317 157.087C36.6628 157.133 36.6628 157.229 36.6709 157.311C36.679 157.386 36.5459 157.56 36.5204 157.572C36.4458 157.608 36.4247 157.714 36.3818 157.795C36.3675 157.821 36.3482 157.856 36.3339 157.877C36.301 157.92 35.6159 157.953 35.5624 157.92C35.5562 157.917 35.3566 157.836 35.144 157.749C34.9314 157.663 34.7076 157.575 34.6578 157.562C34.6062 157.549 34.5795 157.494 34.5459 157.45C34.5316 157.433 33.8701 157.179 33.8471 157.158C33.7315 157.069 33.5761 157.036 33.5232 156.849C33.5133 156.812 33.4841 156.802 33.4586 156.789C33.2335 156.668 33.0501 156.484 32.8617 156.309C32.7641 156.221 32.6485 156.155 32.5434 156.075C32.5248 156.061 32.5179 156.031 32.5043 156.01C32.4869 155.984 32.4757 155.948 32.452 155.931C32.2034 155.74 32.015 155.48 31.7533 155.298C31.6892 155.258 31.5562 154.9 31.4872 154.853C31.4455 154.827 31.5021 154.568 31.4505 154.561Z" fill="#231F20"/>
</g>
<path d="M516 104.11C516 104.11 518.499 94.9227 518.554 83.7686C518.642 65.7665 512.643 46.8428 513.257 28.851C513.661 16.9872 516.264 0.729997 516.264 0.729997" stroke="black" stroke-width="7"/>
<g filter="url(#filter2_d_2481_10)">
<path d="M461.568 455.468V478.059L449.782 472.166C443.299 469.023 437.21 466.273 436.031 466.273C431.513 466.273 434.656 472.362 443.103 479.827C449.192 485.13 451.353 488.077 449.585 488.666C448.014 489.256 436.424 492.399 423.459 495.542C399.298 501.435 394.387 503.988 398.119 507.721C399.494 509.096 408.923 508.506 429.942 505.363C446.442 503.006 460.389 501.631 460.979 502.22C461.568 503.006 458.228 509.881 453.71 517.739C448.996 525.596 445.067 532.668 444.674 533.257C444.281 534.043 445.264 535.615 446.639 536.793C448.996 538.758 450.96 537.775 457.246 532.275C461.568 528.346 465.89 525.203 466.872 525.203C467.854 525.203 469.818 531.097 471.39 538.365C474.729 555.258 477.086 560.562 481.408 560.562C486.712 560.562 487.694 554.473 486.122 531.882C485.337 520.489 485.337 511.453 486.319 511.453C487.301 511.453 495.159 514.596 503.802 518.328C520.892 525.793 526.392 526.775 526.392 522.453C526.392 518.525 523.249 515.775 508.123 505.363C500.855 500.649 494.962 496.131 494.962 495.542C494.962 494.952 504.98 491.613 517.159 488.077C538.964 481.791 548 477.666 548 474.13C548 471.183 535.624 471.773 515.981 475.309C506.552 477.077 498.105 478.059 497.516 477.273C496.926 476.684 498.302 471.576 500.659 466.076C509.498 444.664 503.998 442.7 490.248 462.54C485.14 470.201 480.033 475.701 479.247 474.719C478.461 473.934 476.301 466.076 474.336 457.433C470.408 438.968 467.854 432.878 464.122 432.878C462.157 432.878 461.568 437.986 461.568 455.468Z" fill="#FF6258"/>
<path d="M463.068 478.059V480.486L460.897 479.4L449.127 473.515C449.125 473.514 449.122 473.513 449.119 473.511C445.889 471.945 442.769 470.483 440.318 469.416C439.09 468.88 438.047 468.452 437.249 468.16C436.85 468.013 436.531 467.908 436.292 467.842C436.09 467.786 436.006 467.774 436.003 467.773C435.713 467.775 435.548 467.813 435.468 467.841C435.458 468.024 435.513 468.553 436.036 469.558C437.185 471.767 439.916 475.008 444.092 478.699C447.143 481.356 449.314 483.51 450.5 485.127C451.064 485.896 451.57 486.757 451.665 487.617C451.719 488.096 451.652 488.657 451.312 489.167C450.985 489.657 450.518 489.931 450.088 490.08C449.178 490.416 445.813 491.365 441.18 492.596C436.455 493.851 430.307 495.425 423.814 496.999C411.693 499.955 404.594 502.033 400.986 503.79C400.098 504.222 399.484 504.606 399.078 504.94C398.667 505.277 398.547 505.499 398.515 505.587C398.499 505.63 398.484 505.676 398.538 505.81C398.605 505.977 398.77 506.24 399.125 506.604C399.16 506.62 399.24 506.652 399.388 506.689C399.694 506.767 400.155 506.836 400.81 506.877C402.116 506.96 404.003 506.923 406.557 506.74C411.654 506.376 419.219 505.45 429.72 503.88L429.72 503.88L429.729 503.878C437.995 502.698 445.629 501.762 451.277 501.194C454.098 500.911 456.441 500.718 458.126 500.633C458.963 500.591 459.668 500.574 460.198 500.59C460.458 500.598 460.718 500.615 460.947 500.651C461.06 500.669 461.204 500.697 461.356 500.747C461.47 500.785 461.771 500.891 462.039 501.16L462.115 501.235L462.179 501.32C462.463 501.7 462.524 502.105 462.54 502.331C462.558 502.581 462.534 502.822 462.503 503.023C462.439 503.428 462.308 503.886 462.146 504.358C461.818 505.315 461.287 506.552 460.615 507.97C459.266 510.818 457.281 514.538 455.011 518.487L455.004 518.499L454.997 518.511C452.647 522.428 450.491 526.15 448.873 528.97C448.379 529.831 447.929 530.619 447.536 531.305C446.886 532.444 446.393 533.306 446.12 533.767C446.15 533.853 446.204 533.974 446.293 534.128C446.559 534.59 447.025 535.147 447.607 535.647C448.071 536.033 448.39 536.168 448.644 536.208C448.892 536.248 449.258 536.226 449.868 535.959C451.186 535.382 453.07 533.936 456.248 531.156C458.438 529.165 460.635 527.367 462.425 526.056C463.318 525.402 464.132 524.853 464.806 524.46C465.141 524.265 465.467 524.093 465.767 523.965C466.021 523.858 466.43 523.703 466.872 523.703C467.705 523.703 468.232 524.274 468.421 524.493C468.68 524.795 468.906 525.169 469.101 525.545C469.5 526.311 469.915 527.357 470.33 528.575C471.164 531.028 472.062 534.378 472.856 538.048L472.859 538.061L472.861 538.074C474.533 546.532 475.931 551.922 477.398 555.183C478.128 556.805 478.822 557.775 479.47 558.334C480.071 558.854 480.679 559.062 481.408 559.062C482.412 559.062 483.013 558.793 483.477 558.266C484.014 557.657 484.524 556.523 484.863 554.451C485.542 550.307 485.414 543.313 484.626 531.986L484.626 531.986C484.232 526.268 484.033 521.12 484.058 517.385C484.07 515.527 484.138 513.972 484.275 512.86C484.341 512.318 484.433 511.796 484.578 511.376C484.647 511.174 484.762 510.893 484.963 510.635C485.166 510.375 485.613 509.953 486.319 509.953C486.685 509.953 487.115 510.069 487.41 510.153C487.776 510.258 488.227 510.406 488.744 510.586C489.782 510.949 491.148 511.467 492.739 512.096C495.925 513.356 500.066 515.081 504.396 516.951L504.402 516.954C512.971 520.696 518.462 522.733 521.774 523.335C523.472 523.643 524.267 523.507 524.584 523.345L524.588 523.343C524.694 523.289 524.892 523.189 524.892 522.453C524.892 521.702 524.749 521.044 524.348 520.308C523.926 519.536 523.191 518.626 521.91 517.44C519.332 515.05 514.868 511.827 507.29 506.611C503.637 504.241 500.325 501.917 497.915 500.104C496.712 499.198 495.716 498.407 495.011 497.793C494.663 497.49 494.358 497.206 494.129 496.959C494.018 496.839 493.893 496.694 493.787 496.536C493.733 496.457 493.665 496.346 493.605 496.21C493.552 496.089 493.462 495.85 493.462 495.542C493.462 495.011 493.727 494.655 493.829 494.531C493.954 494.376 494.088 494.267 494.173 494.203C494.35 494.07 494.55 493.956 494.725 493.865C495.09 493.676 495.583 493.462 496.161 493.231C497.33 492.764 498.994 492.17 501.017 491.492C505.069 490.133 510.639 488.408 516.741 486.636L516.744 486.636C527.637 483.495 535.258 480.917 540.137 478.706C542.584 477.597 544.255 476.618 545.292 475.761C546.087 475.103 546.368 474.637 546.459 474.356C546.28 474.264 545.964 474.148 545.455 474.043C544.171 473.777 542.158 473.678 539.416 473.787C533.971 474.004 526.047 475.021 516.253 476.784C511.515 477.672 507.008 478.366 503.597 478.739C501.896 478.926 500.433 479.036 499.337 479.046C498.796 479.051 498.292 479.032 497.874 478.971C497.667 478.94 497.429 478.892 497.199 478.807C497.018 478.741 496.669 478.591 496.385 478.259C496.16 478.006 496.051 477.735 495.994 477.549C495.928 477.333 495.9 477.125 495.888 476.951C495.865 476.605 495.892 476.227 495.939 475.858C496.035 475.109 496.246 474.166 496.537 473.116C497.122 471.004 498.078 468.292 499.276 465.495C501.468 460.183 502.734 456.165 503.218 453.438C503.463 452.06 503.487 451.125 503.394 450.558C503.376 450.443 503.355 450.358 503.337 450.296C503.21 450.33 502.991 450.408 502.657 450.598C501.98 450.984 501.083 451.688 499.97 452.781C497.757 454.957 494.899 458.464 491.488 463.384C488.906 467.255 486.31 470.605 484.236 472.881C483.207 474.01 482.259 474.929 481.474 475.512C481.097 475.792 480.654 476.075 480.19 476.222C479.77 476.355 478.811 476.51 478.125 475.715C477.842 475.405 477.646 474.994 477.523 474.721C477.36 474.358 477.187 473.908 477.009 473.398C476.65 472.373 476.235 471.013 475.79 469.429C474.897 466.255 473.86 462.104 472.874 457.765L472.871 457.755L472.869 457.745C470.904 448.508 469.307 442.495 467.771 438.808C467.002 436.962 466.296 435.821 465.658 435.157C465.159 434.638 464.736 434.442 464.345 434.392C464.323 434.433 464.297 434.486 464.266 434.555C464.031 435.088 463.792 436.083 463.599 437.786C463.217 441.151 463.068 446.716 463.068 455.468V478.059ZM446.086 533.641C446.086 533.641 446.086 533.643 446.086 533.647C446.086 533.643 446.086 533.641 446.086 533.641ZM503.273 450.149C503.273 450.15 503.277 450.158 503.288 450.17C503.279 450.154 503.274 450.148 503.273 450.149ZM464.423 434.27C464.423 434.269 464.419 434.273 464.411 434.283C464.42 434.275 464.423 434.27 464.423 434.27Z" stroke="black" stroke-width="3"/>
</g>
<circle cx="223" cy="82.8784" r="10" fill="black"/>
<circle cx="346" cy="82.8784" r="10" fill="black"/>
<path d="M265.156 278.292C259.156 287.492 260.489 300.425 267.422 299.092C272.756 298.158 278.089 283.092 275.422 276.292C273.556 271.092 269.422 271.892 265.156 278.292Z" fill="#0C0C0C"/>
<path d="M302.623 280.558C297.956 283.625 296.49 297.758 300.09 304.825C302.89 310.158 306.756 310.025 310.223 304.425C313.956 298.558 313.156 287.491 308.756 282.825C305.423 279.225 304.89 279.091 302.623 280.558Z" fill="#0C0C0C"/>
<path d="M233.288 294.825C231.421 302.158 238.888 320.558 248.088 331.091C250.888 334.425 256.488 338.425 261.821 341.091C270.221 345.225 271.555 345.491 284.755 345.491C297.421 345.491 299.555 345.091 307.155 341.625C316.888 337.091 330.088 323.891 330.088 318.558C330.088 313.891 326.755 314.691 317.555 322.025C307.421 330.025 302.621 332.558 294.221 334.158C286.221 335.625 273.288 333.758 266.221 330.158C257.821 325.891 245.421 310.158 240.488 297.491C237.955 291.091 234.621 289.758 233.288 294.825Z" fill="#0C0C0C"/>
</g>
<defs>
<filter id="filter0_d_2481_10" x="-0.000732422" y="0.177124" width="563" height="589.553" filterUnits="userSpaceOnUse" color-interpolation-filters="sRGB">
<feFlood flood-opacity="0" result="BackgroundImageFix"/>
<feColorMatrix in="SourceAlpha" type="matrix" values="0 0 0 0 0 0 0 0 0 0 0 0 0 0 0 0 0 0 127 0" result="hardAlpha"/>
<feOffset dx="-9" dy="10"/>
<feComposite in2="hardAlpha" operator="out"/>
<feColorMatrix type="matrix" values="0 0 0 0 0 0 0 0 0 0 0 0 0 0 0 0 0 0 0.44 0"/>
<feBlend mode="normal" in2="BackgroundImageFix" result="effect1_dropShadow_2481_10"/>
<feBlend mode="normal" in="SourceGraphic" in2="effect1_dropShadow_2481_10" result="shape"/>
</filter>
<filter id="filter1_d_2481_10" x="9" y="135.73" width="94.0112" height="96.0111" filterUnits="userSpaceOnUse" color-interpolation-filters="sRGB">
<feFlood flood-opacity="0" result="BackgroundImageFix"/>
<feColorMatrix in="SourceAlpha" type="matrix" values="0 0 0 0 0 0 0 0 0 0 0 0 0 0 0 0 0 0 127 0" result="hardAlpha"/>
<feOffset dx="2" dy="4"/>
<feComposite in2="hardAlpha" operator="out"/>
<feColorMatrix type="matrix" values="0 0 0 0 0 0 0 0 0 0 0 0 0 0 0 0 0 0 1 0"/>
<feBlend mode="normal" in2="BackgroundImageFix" result="effect1_dropShadow_2481_10"/>
<feBlend mode="normal" in="SourceGraphic" in2="effect1_dropShadow_2481_10" result="shape"/>
</filter>
<filter id="filter2_d_2481_10" x="397" y="432.878" width="151" height="135.448" filterUnits="userSpaceOnUse" color-interpolation-filters="sRGB">
<feFlood flood-opacity="0" result="BackgroundImageFix"/>
<feColorMatrix in="SourceAlpha" type="matrix" values="0 0 0 0 0 0 0 0 0 0 0 0 0 0 0 0 0 0 127 0" result="hardAlpha"/>
<feOffset dy="7.76457"/>
<feComposite in2="hardAlpha" operator="out"/>
<feColorMatrix type="matrix" values="0 0 0 0 0.745098 0 0 0 0 0.74902 0 0 0 0 0.705882 0 0 0 1 0"/>
<feBlend mode="normal" in2="BackgroundImageFix" result="effect1_dropShadow_2481_10"/>
<feBlend mode="normal" in="SourceGraphic" in2="effect1_dropShadow_2481_10" result="shape"/>
</filter>
</defs>
</svg>
